<svg xmlns="http://www.w3.org/2000/svg" xmlns:xlink="http://www.w3.org/1999/xlink" width="2000" zoomAndPan="magnify" viewBox="0 0 1500 1499.999933" height="2000" preserveAspectRatio="xMidYMid meet" version="1.0"><defs><clipPath id="a67ea631af"><path d="M 259.449219 259.449219 L 470 259.449219 L 470 470 L 259.449219 470 Z M 259.449219 259.449219 " clip-rule="nonzero"/></clipPath><clipPath id="0ae8bfd0ce"><path d="M 259.449219 1030 L 470 1030 L 470 1240.449219 L 259.449219 1240.449219 Z M 259.449219 1030 " clip-rule="nonzero"/></clipPath><clipPath id="630c384e9c"><path d="M 1030 259.449219 L 1240.449219 259.449219 L 1240.449219 470 L 1030 470 Z M 1030 259.449219 " clip-rule="nonzero"/></clipPath><clipPath id="c5d0da39d0"><path d="M 1030 1030 L 1240.449219 1030 L 1240.449219 1240.449219 L 1030 1240.449219 Z M 1030 1030 " clip-rule="nonzero"/></clipPath></defs><g clip-path="url(#a67ea631af)"><path fill="#000000" d="M 294.484375 469.664062 C 295.632812 469.664062 296.777344 469.605469 297.917969 469.496094 C 299.0625 469.382812 300.195312 469.214844 301.320312 468.988281 C 302.445312 468.765625 303.558594 468.488281 304.65625 468.15625 C 305.753906 467.820312 306.832031 467.433594 307.890625 466.996094 C 308.953125 466.558594 309.988281 466.066406 311 465.527344 C 312.011719 464.984375 312.996094 464.394531 313.949219 463.757812 C 314.902344 463.121094 315.824219 462.4375 316.710938 461.710938 C 317.597656 460.980469 318.445312 460.210938 319.257812 459.402344 C 320.070312 458.589844 320.839844 457.742188 321.566406 456.855469 C 322.296875 455.964844 322.976562 455.046875 323.617188 454.09375 C 324.253906 453.136719 324.84375 452.15625 325.382812 451.144531 C 325.925781 450.132812 326.414062 449.09375 326.851562 448.035156 C 327.292969 446.976562 327.679688 445.894531 328.011719 444.796875 C 328.34375 443.699219 328.625 442.585938 328.847656 441.460938 C 329.070312 440.335938 329.238281 439.203125 329.351562 438.0625 C 329.464844 436.917969 329.519531 435.773438 329.519531 434.628906 L 329.519531 413.253906 C 329.523438 411.886719 329.558594 410.515625 329.628906 409.148438 C 329.699219 407.78125 329.800781 406.417969 329.9375 405.054688 C 330.074219 403.691406 330.246094 402.332031 330.449219 400.976562 C 330.652344 399.625 330.890625 398.273438 331.15625 396.933594 C 331.425781 395.589844 331.730469 394.253906 332.0625 392.925781 C 332.398438 391.597656 332.765625 390.277344 333.164062 388.96875 C 333.5625 387.65625 333.996094 386.359375 334.457031 385.070312 C 334.921875 383.78125 335.414062 382.503906 335.941406 381.238281 C 336.464844 379.972656 337.023438 378.722656 337.609375 377.484375 C 338.195312 376.246094 338.8125 375.023438 339.460938 373.816406 C 340.105469 372.609375 340.78125 371.417969 341.484375 370.246094 C 342.191406 369.070312 342.925781 367.914062 343.6875 366.777344 C 344.449219 365.636719 345.234375 364.519531 346.050781 363.417969 C 346.867188 362.320312 347.710938 361.238281 348.582031 360.179688 C 349.449219 359.121094 350.34375 358.085938 351.265625 357.070312 C 352.183594 356.058594 353.128906 355.066406 354.097656 354.097656 C 355.066406 353.128906 356.058594 352.183594 357.070312 351.265625 C 358.085938 350.34375 359.121094 349.449219 360.179688 348.582031 C 361.238281 347.710938 362.320312 346.867188 363.417969 346.050781 C 364.519531 345.234375 365.636719 344.449219 366.777344 343.6875 C 367.914062 342.925781 369.070312 342.191406 370.246094 341.484375 C 371.417969 340.78125 372.609375 340.105469 373.816406 339.460938 C 375.023438 338.8125 376.246094 338.195312 377.484375 337.609375 C 378.722656 337.023438 379.972656 336.464844 381.238281 335.941406 C 382.503906 335.414062 383.78125 334.921875 385.070312 334.457031 C 386.359375 333.996094 387.65625 333.5625 388.96875 333.164062 C 390.277344 332.765625 391.597656 332.398438 392.925781 332.0625 C 394.253906 331.730469 395.589844 331.425781 396.933594 331.15625 C 398.273438 330.890625 399.625 330.652344 400.976562 330.449219 C 402.332031 330.246094 403.691406 330.074219 405.054688 329.9375 C 406.417969 329.800781 407.78125 329.699219 409.148438 329.628906 C 410.515625 329.558594 411.886719 329.523438 413.253906 329.519531 L 434.628906 329.519531 C 435.773438 329.519531 436.917969 329.464844 438.0625 329.351562 C 439.203125 329.238281 440.335938 329.070312 441.460938 328.847656 C 442.589844 328.625 443.699219 328.34375 444.796875 328.011719 C 445.894531 327.679688 446.976562 327.292969 448.035156 326.851562 C 449.09375 326.414062 450.132812 325.925781 451.144531 325.382812 C 452.15625 324.84375 453.136719 324.253906 454.09375 323.617188 C 455.046875 322.976562 455.96875 322.296875 456.855469 321.566406 C 457.742188 320.839844 458.589844 320.070312 459.402344 319.257812 C 460.210938 318.445312 460.980469 317.597656 461.710938 316.710938 C 462.4375 315.824219 463.121094 314.902344 463.757812 313.949219 C 464.394531 312.996094 464.984375 312.011719 465.527344 311 C 466.066406 309.988281 466.558594 308.953125 466.996094 307.890625 C 467.433594 306.832031 467.820312 305.753906 468.15625 304.65625 C 468.488281 303.558594 468.765625 302.445312 468.988281 301.320312 C 469.214844 300.195312 469.382812 299.058594 469.496094 297.917969 C 469.605469 296.777344 469.664062 295.632812 469.664062 294.484375 C 469.664062 293.335938 469.605469 292.191406 469.496094 291.050781 C 469.382812 289.910156 469.214844 288.773438 468.988281 287.648438 C 468.765625 286.523438 468.488281 285.414062 468.15625 284.3125 C 467.820312 283.214844 467.433594 282.136719 466.996094 281.078125 C 466.558594 280.015625 466.066406 278.980469 465.527344 277.96875 C 464.984375 276.957031 464.394531 275.972656 463.757812 275.019531 C 463.121094 274.066406 462.4375 273.144531 461.710938 272.257812 C 460.980469 271.371094 460.210938 270.523438 459.402344 269.710938 C 458.589844 268.898438 457.742188 268.128906 456.855469 267.402344 C 455.96875 266.671875 455.046875 265.992188 454.09375 265.351562 C 453.136719 264.714844 452.15625 264.125 451.144531 263.585938 C 450.132812 263.042969 449.09375 262.554688 448.035156 262.117188 C 446.976562 261.675781 445.894531 261.289062 444.796875 260.957031 C 443.699219 260.625 442.589844 260.347656 441.460938 260.121094 C 440.335938 259.898438 439.203125 259.730469 438.0625 259.617188 C 436.917969 259.503906 435.773438 259.449219 434.628906 259.449219 L 413.253906 259.449219 C 410.738281 259.453125 408.222656 259.515625 405.710938 259.640625 C 403.199219 259.769531 400.6875 259.957031 398.183594 260.207031 C 395.679688 260.453125 393.183594 260.765625 390.695312 261.136719 C 388.207031 261.507812 385.730469 261.941406 383.261719 262.433594 C 380.792969 262.925781 378.339844 263.480469 375.898438 264.09375 C 373.457031 264.707031 371.035156 265.378906 368.628906 266.109375 C 366.21875 266.84375 363.832031 267.632812 361.464844 268.484375 C 359.09375 269.332031 356.746094 270.238281 354.421875 271.203125 C 352.097656 272.167969 349.800781 273.1875 347.527344 274.265625 C 345.25 275.34375 343.003906 276.472656 340.785156 277.660156 C 338.566406 278.847656 336.378906 280.089844 334.222656 281.382812 C 332.0625 282.679688 329.9375 284.023438 327.847656 285.421875 C 325.753906 286.820312 323.699219 288.269531 321.675781 289.769531 C 319.65625 291.269531 317.671875 292.816406 315.730469 294.414062 C 313.785156 296.011719 311.878906 297.65625 310.015625 299.34375 C 308.148438 301.035156 306.328125 302.769531 304.550781 304.550781 C 302.769531 306.328125 301.035156 308.148438 299.34375 310.015625 C 297.65625 311.878906 296.011719 313.785156 294.414062 315.730469 C 292.816406 317.671875 291.269531 319.65625 289.769531 321.675781 C 288.269531 323.699219 286.824219 325.753906 285.421875 327.847656 C 284.023438 329.9375 282.679688 332.0625 281.382812 334.222656 C 280.089844 336.378906 278.847656 338.566406 277.660156 340.785156 C 276.472656 343.003906 275.34375 345.25 274.265625 347.527344 C 273.1875 349.800781 272.167969 352.097656 271.203125 354.421875 C 270.238281 356.746094 269.332031 359.09375 268.484375 361.464844 C 267.632812 363.832031 266.84375 366.21875 266.109375 368.628906 C 265.378906 371.035156 264.707031 373.457031 264.09375 375.898438 C 263.480469 378.339844 262.925781 380.792969 262.433594 383.261719 C 261.941406 385.730469 261.507812 388.207031 261.136719 390.695312 C 260.765625 393.183594 260.453125 395.679688 260.207031 398.183594 C 259.957031 400.6875 259.769531 403.199219 259.640625 405.710938 C 259.515625 408.222656 259.453125 410.738281 259.449219 413.253906 L 259.449219 434.628906 C 259.449219 435.773438 259.503906 436.917969 259.617188 438.0625 C 259.730469 439.203125 259.898438 440.335938 260.121094 441.460938 C 260.347656 442.585938 260.625 443.699219 260.957031 444.796875 C 261.289062 445.894531 261.675781 446.976562 262.117188 448.035156 C 262.554688 449.09375 263.042969 450.132812 263.585938 451.144531 C 264.125 452.15625 264.714844 453.136719 265.351562 454.09375 C 265.992188 455.046875 266.671875 455.964844 267.402344 456.855469 C 268.128906 457.742188 268.898438 458.589844 269.710938 459.402344 C 270.523438 460.210938 271.371094 460.980469 272.257812 461.710938 C 273.144531 462.4375 274.066406 463.121094 275.019531 463.757812 C 275.972656 464.394531 276.957031 464.984375 277.96875 465.527344 C 278.980469 466.066406 280.015625 466.558594 281.078125 466.996094 C 282.136719 467.433594 283.214844 467.820312 284.3125 468.15625 C 285.414062 468.488281 286.523438 468.765625 287.648438 468.988281 C 288.773438 469.214844 289.910156 469.382812 291.050781 469.496094 C 292.191406 469.605469 293.335938 469.664062 294.484375 469.664062 Z M 294.484375 469.664062 " fill-opacity="1" fill-rule="nonzero"/></g><g clip-path="url(#0ae8bfd0ce)"><path fill="#000000" d="M 413.253906 1240.449219 L 434.628906 1240.449219 C 435.773438 1240.449219 436.917969 1240.390625 438.0625 1240.28125 C 439.203125 1240.167969 440.335938 1240 441.460938 1239.777344 C 442.589844 1239.550781 443.699219 1239.273438 444.796875 1238.941406 C 445.894531 1238.605469 446.976562 1238.222656 448.035156 1237.78125 C 449.09375 1237.34375 450.132812 1236.851562 451.144531 1236.3125 C 452.15625 1235.769531 453.136719 1235.179688 454.09375 1234.542969 C 455.046875 1233.90625 455.96875 1233.222656 456.855469 1232.496094 C 457.742188 1231.769531 458.589844 1231 459.402344 1230.1875 C 460.210938 1229.375 460.980469 1228.527344 461.710938 1227.640625 C 462.4375 1226.753906 463.121094 1225.832031 463.757812 1224.878906 C 464.394531 1223.921875 464.984375 1222.941406 465.527344 1221.929688 C 466.066406 1220.917969 466.558594 1219.878906 466.996094 1218.820312 C 467.433594 1217.761719 467.820312 1216.679688 468.15625 1215.582031 C 468.488281 1214.484375 468.765625 1213.375 468.988281 1212.246094 C 469.214844 1211.121094 469.382812 1209.988281 469.496094 1208.847656 C 469.605469 1207.707031 469.664062 1206.558594 469.664062 1205.414062 C 469.664062 1204.265625 469.605469 1203.121094 469.496094 1201.980469 C 469.382812 1200.835938 469.214844 1199.703125 468.988281 1198.578125 C 468.765625 1197.453125 468.488281 1196.339844 468.15625 1195.242188 C 467.820312 1194.144531 467.433594 1193.066406 466.996094 1192.003906 C 466.558594 1190.945312 466.066406 1189.910156 465.527344 1188.898438 C 464.984375 1187.886719 464.394531 1186.902344 463.757812 1185.949219 C 463.121094 1184.992188 462.4375 1184.074219 461.710938 1183.1875 C 460.980469 1182.300781 460.210938 1181.449219 459.402344 1180.640625 C 458.589844 1179.828125 457.742188 1179.058594 456.855469 1178.328125 C 455.96875 1177.601562 455.046875 1176.917969 454.09375 1176.28125 C 453.136719 1175.644531 452.15625 1175.054688 451.144531 1174.515625 C 450.132812 1173.972656 449.09375 1173.484375 448.035156 1173.042969 C 446.976562 1172.605469 445.894531 1172.21875 444.796875 1171.886719 C 443.699219 1171.554688 442.589844 1171.273438 441.460938 1171.050781 C 440.335938 1170.828125 439.203125 1170.660156 438.0625 1170.546875 C 436.917969 1170.433594 435.773438 1170.378906 434.628906 1170.378906 L 413.253906 1170.378906 C 411.886719 1170.375 410.515625 1170.339844 409.148438 1170.269531 C 407.78125 1170.199219 406.417969 1170.09375 405.054688 1169.957031 C 403.691406 1169.820312 402.332031 1169.652344 400.976562 1169.449219 C 399.625 1169.246094 398.273438 1169.007812 396.933594 1168.738281 C 395.589844 1168.46875 394.253906 1168.167969 392.925781 1167.832031 C 391.597656 1167.5 390.277344 1167.132812 388.96875 1166.734375 C 387.65625 1166.332031 386.359375 1165.902344 385.070312 1165.4375 C 383.78125 1164.976562 382.503906 1164.480469 381.238281 1163.957031 C 379.972656 1163.429688 378.722656 1162.875 377.484375 1162.289062 C 376.246094 1161.703125 375.023438 1161.085938 373.816406 1160.4375 C 372.609375 1159.792969 371.417969 1159.117188 370.246094 1158.410156 C 369.070312 1157.707031 367.914062 1156.972656 366.777344 1156.210938 C 365.636719 1155.449219 364.519531 1154.660156 363.417969 1153.84375 C 362.320312 1153.027344 361.238281 1152.1875 360.179688 1151.316406 C 359.121094 1150.449219 358.085938 1149.554688 357.070312 1148.632812 C 356.058594 1147.714844 355.066406 1146.769531 354.097656 1145.800781 C 353.128906 1144.832031 352.183594 1143.839844 351.265625 1142.824219 C 350.34375 1141.8125 349.449219 1140.773438 348.582031 1139.714844 C 347.710938 1138.65625 346.867188 1137.578125 346.050781 1136.480469 C 345.234375 1135.378906 344.449219 1134.261719 343.6875 1133.121094 C 342.925781 1131.984375 342.191406 1130.828125 341.484375 1129.652344 C 340.78125 1128.476562 340.105469 1127.289062 339.460938 1126.078125 C 338.8125 1124.871094 338.195312 1123.648438 337.609375 1122.414062 C 337.023438 1121.175781 336.464844 1119.925781 335.941406 1118.660156 C 335.414062 1117.394531 334.921875 1116.117188 334.457031 1114.828125 C 333.996094 1113.539062 333.5625 1112.238281 333.164062 1110.929688 C 332.765625 1109.621094 332.398438 1108.300781 332.0625 1106.972656 C 331.730469 1105.644531 331.425781 1104.308594 331.15625 1102.964844 C 330.890625 1101.621094 330.652344 1100.273438 330.449219 1098.921875 C 330.246094 1097.566406 330.074219 1096.207031 329.9375 1094.84375 C 329.800781 1093.480469 329.699219 1092.117188 329.628906 1090.75 C 329.558594 1089.378906 329.523438 1088.011719 329.519531 1086.640625 L 329.519531 1065.269531 C 329.519531 1064.121094 329.464844 1062.976562 329.351562 1061.835938 C 329.238281 1060.695312 329.070312 1059.558594 328.847656 1058.433594 C 328.625 1057.308594 328.34375 1056.199219 328.011719 1055.101562 C 327.679688 1054 327.292969 1052.921875 326.851562 1051.863281 C 326.414062 1050.800781 325.925781 1049.765625 325.382812 1048.753906 C 324.84375 1047.742188 324.253906 1046.757812 323.617188 1045.804688 C 322.976562 1044.851562 322.296875 1043.929688 321.566406 1043.042969 C 320.839844 1042.15625 320.070312 1041.308594 319.257812 1040.496094 C 318.445312 1039.683594 317.597656 1038.914062 316.710938 1038.1875 C 315.824219 1037.460938 314.902344 1036.777344 313.949219 1036.140625 C 312.996094 1035.5 312.011719 1034.914062 311 1034.371094 C 309.988281 1033.832031 308.953125 1033.339844 307.890625 1032.902344 C 306.832031 1032.460938 305.753906 1032.074219 304.65625 1031.742188 C 303.558594 1031.410156 302.445312 1031.132812 301.320312 1030.90625 C 300.195312 1030.683594 299.0625 1030.515625 297.917969 1030.402344 C 296.777344 1030.289062 295.632812 1030.234375 294.484375 1030.234375 C 293.335938 1030.234375 292.191406 1030.289062 291.050781 1030.402344 C 289.910156 1030.515625 288.773438 1030.683594 287.648438 1030.90625 C 286.523438 1031.132812 285.414062 1031.410156 284.3125 1031.742188 C 283.214844 1032.074219 282.136719 1032.460938 281.078125 1032.902344 C 280.015625 1033.339844 278.980469 1033.832031 277.96875 1034.371094 C 276.957031 1034.914062 275.972656 1035.5 275.019531 1036.140625 C 274.066406 1036.777344 273.144531 1037.460938 272.257812 1038.1875 C 271.371094 1038.914062 270.523438 1039.683594 269.710938 1040.496094 C 268.898438 1041.308594 268.128906 1042.15625 267.402344 1043.042969 C 266.671875 1043.929688 265.992188 1044.851562 265.351562 1045.804688 C 264.714844 1046.757812 264.125 1047.742188 263.585938 1048.753906 C 263.042969 1049.765625 262.554688 1050.800781 262.117188 1051.863281 C 261.675781 1052.921875 261.289062 1054 260.957031 1055.101562 C 260.625 1056.199219 260.347656 1057.308594 260.121094 1058.433594 C 259.898438 1059.558594 259.730469 1060.695312 259.617188 1061.835938 C 259.503906 1062.976562 259.449219 1064.121094 259.449219 1065.269531 L 259.449219 1086.640625 C 259.453125 1089.160156 259.515625 1091.671875 259.640625 1094.1875 C 259.769531 1096.699219 259.957031 1099.207031 260.207031 1101.710938 C 260.453125 1104.214844 260.765625 1106.710938 261.136719 1109.203125 C 261.507812 1111.691406 261.941406 1114.167969 262.433594 1116.636719 C 262.925781 1119.105469 263.480469 1121.558594 264.09375 1124 C 264.707031 1126.4375 265.378906 1128.863281 266.109375 1131.269531 C 266.84375 1133.675781 267.632812 1136.066406 268.484375 1138.433594 C 269.332031 1140.804688 270.238281 1143.148438 271.203125 1145.472656 C 272.167969 1147.796875 273.1875 1150.097656 274.265625 1152.371094 C 275.34375 1154.644531 276.472656 1156.890625 277.660156 1159.109375 C 278.847656 1161.328125 280.089844 1163.519531 281.382812 1165.675781 C 282.679688 1167.835938 284.023438 1169.960938 285.421875 1172.050781 C 286.824219 1174.144531 288.269531 1176.199219 289.769531 1178.21875 C 291.269531 1180.242188 292.816406 1182.222656 294.414062 1184.167969 C 296.011719 1186.113281 297.65625 1188.019531 299.34375 1189.882812 C 301.035156 1191.746094 302.769531 1193.570312 304.550781 1195.347656 C 306.328125 1197.128906 308.148438 1198.863281 310.015625 1200.550781 C 311.878906 1202.242188 313.785156 1203.886719 315.730469 1205.484375 C 317.671875 1207.078125 319.65625 1208.628906 321.675781 1210.125 C 323.699219 1211.625 325.753906 1213.074219 327.847656 1214.472656 C 329.9375 1215.871094 332.0625 1217.21875 334.222656 1218.511719 C 336.378906 1219.808594 338.566406 1221.046875 340.785156 1222.234375 C 343.003906 1223.421875 345.25 1224.554688 347.527344 1225.632812 C 349.800781 1226.710938 352.097656 1227.730469 354.421875 1228.695312 C 356.746094 1229.660156 359.09375 1230.566406 361.464844 1231.414062 C 363.832031 1232.261719 366.21875 1233.054688 368.628906 1233.785156 C 371.035156 1234.519531 373.457031 1235.191406 375.898438 1235.804688 C 378.339844 1236.417969 380.792969 1236.972656 383.261719 1237.464844 C 385.730469 1237.957031 388.207031 1238.390625 390.695312 1238.761719 C 393.183594 1239.132812 395.679688 1239.441406 398.183594 1239.691406 C 400.6875 1239.941406 403.199219 1240.128906 405.710938 1240.253906 C 408.222656 1240.382812 410.738281 1240.445312 413.253906 1240.449219 Z M 413.253906 1240.449219 " fill-opacity="1" fill-rule="nonzero"/></g><g clip-path="url(#630c384e9c)"><path fill="#000000" d="M 1086.640625 259.449219 L 1065.269531 259.449219 C 1064.121094 259.449219 1062.976562 259.503906 1061.835938 259.617188 C 1060.695312 259.730469 1059.558594 259.898438 1058.433594 260.121094 C 1057.308594 260.347656 1056.199219 260.625 1055.101562 260.957031 C 1054 261.289062 1052.921875 261.675781 1051.863281 262.117188 C 1050.800781 262.554688 1049.765625 263.042969 1048.753906 263.585938 C 1047.742188 264.125 1046.757812 264.714844 1045.804688 265.351562 C 1044.851562 265.992188 1043.929688 266.671875 1043.042969 267.402344 C 1042.15625 268.128906 1041.308594 268.898438 1040.496094 269.710938 C 1039.683594 270.523438 1038.914062 271.371094 1038.1875 272.257812 C 1037.460938 273.144531 1036.777344 274.066406 1036.140625 275.019531 C 1035.5 275.972656 1034.914062 276.957031 1034.371094 277.96875 C 1033.832031 278.980469 1033.339844 280.015625 1032.902344 281.078125 C 1032.460938 282.136719 1032.074219 283.214844 1031.742188 284.3125 C 1031.410156 285.414062 1031.132812 286.523438 1030.90625 287.648438 C 1030.683594 288.773438 1030.515625 289.910156 1030.402344 291.050781 C 1030.289062 292.191406 1030.234375 293.335938 1030.234375 294.484375 C 1030.234375 295.632812 1030.289062 296.777344 1030.402344 297.917969 C 1030.515625 299.058594 1030.683594 300.195312 1030.90625 301.320312 C 1031.132812 302.445312 1031.410156 303.558594 1031.742188 304.65625 C 1032.074219 305.753906 1032.460938 306.832031 1032.902344 307.890625 C 1033.339844 308.953125 1033.832031 309.988281 1034.371094 311 C 1034.914062 312.011719 1035.5 312.996094 1036.140625 313.949219 C 1036.777344 314.902344 1037.460938 315.824219 1038.1875 316.710938 C 1038.914062 317.597656 1039.683594 318.445312 1040.496094 319.257812 C 1041.308594 320.070312 1042.15625 320.839844 1043.042969 321.566406 C 1043.929688 322.296875 1044.851562 322.976562 1045.804688 323.617188 C 1046.757812 324.253906 1047.742188 324.84375 1048.753906 325.382812 C 1049.765625 325.925781 1050.800781 326.414062 1051.863281 326.851562 C 1052.921875 327.292969 1054 327.679688 1055.101562 328.011719 C 1056.199219 328.34375 1057.308594 328.625 1058.433594 328.847656 C 1059.558594 329.070312 1060.695312 329.238281 1061.835938 329.351562 C 1062.976562 329.464844 1064.121094 329.519531 1065.269531 329.519531 L 1086.640625 329.519531 C 1088.011719 329.523438 1089.378906 329.558594 1090.75 329.628906 C 1092.117188 329.699219 1093.480469 329.800781 1094.84375 329.9375 C 1096.207031 330.074219 1097.566406 330.246094 1098.921875 330.449219 C 1100.273438 330.652344 1101.625 330.890625 1102.964844 331.15625 C 1104.308594 331.425781 1105.644531 331.730469 1106.972656 332.0625 C 1108.300781 332.398438 1109.621094 332.765625 1110.929688 333.164062 C 1112.238281 333.5625 1113.539062 333.996094 1114.828125 334.457031 C 1116.117188 334.921875 1117.394531 335.414062 1118.660156 335.941406 C 1119.925781 336.464844 1121.175781 337.023438 1122.414062 337.609375 C 1123.648438 338.195312 1124.871094 338.8125 1126.078125 339.460938 C 1127.289062 340.105469 1128.476562 340.78125 1129.652344 341.484375 C 1130.828125 342.191406 1131.984375 342.925781 1133.121094 343.6875 C 1134.261719 344.449219 1135.378906 345.234375 1136.480469 346.050781 C 1137.578125 346.867188 1138.65625 347.710938 1139.714844 348.582031 C 1140.773438 349.449219 1141.8125 350.34375 1142.824219 351.265625 C 1143.839844 352.183594 1144.832031 353.128906 1145.800781 354.097656 C 1146.769531 355.066406 1147.714844 356.058594 1148.632812 357.070312 C 1149.554688 358.085938 1150.449219 359.121094 1151.316406 360.179688 C 1152.1875 361.238281 1153.027344 362.320312 1153.84375 363.417969 C 1154.660156 364.519531 1155.449219 365.636719 1156.210938 366.777344 C 1156.972656 367.914062 1157.707031 369.070312 1158.410156 370.246094 C 1159.117188 371.417969 1159.792969 372.609375 1160.4375 373.816406 C 1161.085938 375.023438 1161.703125 376.246094 1162.289062 377.484375 C 1162.875 378.722656 1163.429688 379.972656 1163.957031 381.238281 C 1164.480469 382.503906 1164.976562 383.78125 1165.4375 385.070312 C 1165.902344 386.359375 1166.332031 387.65625 1166.734375 388.96875 C 1167.132812 390.277344 1167.5 391.597656 1167.832031 392.925781 C 1168.167969 394.253906 1168.46875 395.589844 1168.738281 396.933594 C 1169.007812 398.273438 1169.246094 399.625 1169.449219 400.976562 C 1169.652344 402.332031 1169.820312 403.691406 1169.957031 405.054688 C 1170.09375 406.417969 1170.199219 407.78125 1170.269531 409.148438 C 1170.339844 410.515625 1170.375 411.886719 1170.378906 413.253906 L 1170.378906 434.628906 C 1170.378906 435.773438 1170.433594 436.917969 1170.546875 438.0625 C 1170.660156 439.203125 1170.828125 440.335938 1171.050781 441.460938 C 1171.273438 442.585938 1171.554688 443.699219 1171.886719 444.796875 C 1172.21875 445.894531 1172.605469 446.976562 1173.042969 448.035156 C 1173.484375 449.09375 1173.972656 450.132812 1174.515625 451.144531 C 1175.054688 452.15625 1175.644531 453.136719 1176.28125 454.09375 C 1176.917969 455.046875 1177.601562 455.964844 1178.332031 456.855469 C 1179.058594 457.742188 1179.828125 458.589844 1180.640625 459.402344 C 1181.449219 460.210938 1182.300781 460.980469 1183.1875 461.710938 C 1184.074219 462.4375 1184.992188 463.121094 1185.949219 463.757812 C 1186.902344 464.394531 1187.886719 464.984375 1188.898438 465.527344 C 1189.910156 466.066406 1190.945312 466.558594 1192.003906 466.996094 C 1193.066406 467.433594 1194.144531 467.820312 1195.242188 468.15625 C 1196.339844 468.488281 1197.453125 468.765625 1198.578125 468.988281 C 1199.703125 469.214844 1200.835938 469.382812 1201.980469 469.496094 C 1203.121094 469.605469 1204.265625 469.664062 1205.414062 469.664062 C 1206.558594 469.664062 1207.707031 469.605469 1208.847656 469.496094 C 1209.988281 469.382812 1211.121094 469.214844 1212.25 468.988281 C 1213.375 468.765625 1214.484375 468.488281 1215.582031 468.15625 C 1216.679688 467.820312 1217.761719 467.433594 1218.820312 466.996094 C 1219.878906 466.558594 1220.917969 466.066406 1221.929688 465.527344 C 1222.941406 464.984375 1223.921875 464.394531 1224.878906 463.757812 C 1225.832031 463.121094 1226.753906 462.4375 1227.640625 461.710938 C 1228.527344 460.980469 1229.375 460.210938 1230.1875 459.402344 C 1231 458.589844 1231.769531 457.742188 1232.496094 456.855469 C 1233.222656 455.964844 1233.90625 455.046875 1234.542969 454.09375 C 1235.179688 453.136719 1235.769531 452.15625 1236.3125 451.144531 C 1236.851562 450.132812 1237.34375 449.09375 1237.78125 448.035156 C 1238.222656 446.976562 1238.605469 445.894531 1238.941406 444.796875 C 1239.273438 443.699219 1239.550781 442.585938 1239.777344 441.460938 C 1240 440.335938 1240.167969 439.203125 1240.28125 438.0625 C 1240.390625 436.917969 1240.449219 435.773438 1240.449219 434.628906 L 1240.449219 413.253906 C 1240.445312 410.738281 1240.382812 408.222656 1240.253906 405.710938 C 1240.128906 403.199219 1239.941406 400.6875 1239.691406 398.183594 C 1239.441406 395.679688 1239.132812 393.183594 1238.761719 390.695312 C 1238.390625 388.207031 1237.957031 385.730469 1237.464844 383.261719 C 1236.972656 380.792969 1236.417969 378.339844 1235.804688 375.898438 C 1235.191406 373.457031 1234.519531 371.035156 1233.785156 368.628906 C 1233.054688 366.21875 1232.265625 363.832031 1231.414062 361.464844 C 1230.566406 359.09375 1229.660156 356.746094 1228.695312 354.421875 C 1227.730469 352.097656 1226.710938 349.800781 1225.632812 347.527344 C 1224.554688 345.25 1223.421875 343.003906 1222.234375 340.785156 C 1221.046875 338.566406 1219.808594 336.378906 1218.511719 334.222656 C 1217.21875 332.0625 1215.871094 329.9375 1214.472656 327.847656 C 1213.074219 325.753906 1211.625 323.699219 1210.125 321.675781 C 1208.628906 319.65625 1207.078125 317.671875 1205.484375 315.730469 C 1203.886719 313.785156 1202.242188 311.878906 1200.550781 310.015625 C 1198.863281 308.148438 1197.128906 306.328125 1195.347656 304.550781 C 1193.570312 302.769531 1191.746094 301.035156 1189.882812 299.34375 C 1188.019531 297.65625 1186.113281 296.011719 1184.167969 294.414062 C 1182.222656 292.816406 1180.242188 291.269531 1178.21875 289.769531 C 1176.199219 288.269531 1174.144531 286.820312 1172.050781 285.421875 C 1169.960938 284.023438 1167.835938 282.679688 1165.675781 281.382812 C 1163.519531 280.089844 1161.328125 278.847656 1159.109375 277.660156 C 1156.890625 276.472656 1154.644531 275.34375 1152.371094 274.265625 C 1150.097656 273.1875 1147.796875 272.167969 1145.472656 271.203125 C 1143.148438 270.238281 1140.804688 269.332031 1138.433594 268.484375 C 1136.066406 267.632812 1133.675781 266.84375 1131.269531 266.109375 C 1128.863281 265.378906 1126.4375 264.707031 1124 264.09375 C 1121.558594 263.480469 1119.105469 262.925781 1116.636719 262.433594 C 1114.167969 261.941406 1111.691406 261.507812 1109.203125 261.136719 C 1106.710938 260.765625 1104.214844 260.453125 1101.710938 260.207031 C 1099.207031 259.957031 1096.699219 259.769531 1094.1875 259.640625 C 1091.671875 259.515625 1089.160156 259.453125 1086.640625 259.449219 Z M 1086.640625 259.449219 " fill-opacity="1" fill-rule="nonzero"/></g><g clip-path="url(#c5d0da39d0)"><path fill="#000000" d="M 1205.414062 1030.234375 C 1204.265625 1030.234375 1203.121094 1030.289062 1201.980469 1030.402344 C 1200.835938 1030.515625 1199.703125 1030.683594 1198.578125 1030.90625 C 1197.453125 1031.132812 1196.339844 1031.410156 1195.242188 1031.742188 C 1194.144531 1032.078125 1193.066406 1032.460938 1192.003906 1032.902344 C 1190.945312 1033.339844 1189.910156 1033.832031 1188.898438 1034.371094 C 1187.886719 1034.914062 1186.902344 1035.5 1185.949219 1036.140625 C 1184.996094 1036.777344 1184.074219 1037.460938 1183.1875 1038.1875 C 1182.300781 1038.914062 1181.449219 1039.683594 1180.640625 1040.496094 C 1179.828125 1041.308594 1179.058594 1042.15625 1178.332031 1043.042969 C 1177.601562 1043.929688 1176.917969 1044.851562 1176.28125 1045.804688 C 1175.644531 1046.757812 1175.054688 1047.742188 1174.515625 1048.753906 C 1173.972656 1049.765625 1173.484375 1050.800781 1173.042969 1051.863281 C 1172.605469 1052.921875 1172.21875 1054 1171.886719 1055.101562 C 1171.554688 1056.199219 1171.273438 1057.308594 1171.050781 1058.433594 C 1170.828125 1059.558594 1170.660156 1060.695312 1170.546875 1061.835938 C 1170.433594 1062.976562 1170.378906 1064.121094 1170.378906 1065.269531 L 1170.378906 1086.640625 C 1170.375 1088.011719 1170.339844 1089.378906 1170.269531 1090.75 C 1170.199219 1092.117188 1170.09375 1093.480469 1169.957031 1094.84375 C 1169.820312 1096.207031 1169.652344 1097.566406 1169.449219 1098.917969 C 1169.246094 1100.273438 1169.007812 1101.621094 1168.738281 1102.964844 C 1168.46875 1104.308594 1168.167969 1105.644531 1167.832031 1106.972656 C 1167.5 1108.300781 1167.132812 1109.621094 1166.734375 1110.929688 C 1166.332031 1112.238281 1165.902344 1113.539062 1165.4375 1114.828125 C 1164.976562 1116.117188 1164.480469 1117.394531 1163.957031 1118.660156 C 1163.429688 1119.921875 1162.875 1121.175781 1162.289062 1122.414062 C 1161.703125 1123.648438 1161.085938 1124.871094 1160.4375 1126.078125 C 1159.792969 1127.289062 1159.117188 1128.476562 1158.410156 1129.652344 C 1157.707031 1130.828125 1156.972656 1131.984375 1156.210938 1133.121094 C 1155.449219 1134.261719 1154.660156 1135.378906 1153.84375 1136.480469 C 1153.027344 1137.578125 1152.1875 1138.65625 1151.316406 1139.714844 C 1150.449219 1140.773438 1149.554688 1141.8125 1148.632812 1142.824219 C 1147.714844 1143.839844 1146.769531 1144.832031 1145.800781 1145.800781 C 1144.832031 1146.769531 1143.839844 1147.714844 1142.824219 1148.632812 C 1141.8125 1149.554688 1140.773438 1150.449219 1139.714844 1151.316406 C 1138.65625 1152.1875 1137.578125 1153.027344 1136.480469 1153.84375 C 1135.378906 1154.660156 1134.261719 1155.449219 1133.121094 1156.210938 C 1131.984375 1156.972656 1130.828125 1157.707031 1129.652344 1158.410156 C 1128.476562 1159.117188 1127.289062 1159.792969 1126.082031 1160.4375 C 1124.871094 1161.085938 1123.648438 1161.703125 1122.414062 1162.289062 C 1121.175781 1162.875 1119.925781 1163.429688 1118.660156 1163.957031 C 1117.394531 1164.480469 1116.117188 1164.976562 1114.828125 1165.4375 C 1113.539062 1165.902344 1112.238281 1166.332031 1110.929688 1166.734375 C 1109.621094 1167.132812 1108.300781 1167.5 1106.972656 1167.832031 C 1105.644531 1168.167969 1104.308594 1168.46875 1102.964844 1168.738281 C 1101.625 1169.007812 1100.273438 1169.246094 1098.921875 1169.449219 C 1097.566406 1169.652344 1096.207031 1169.820312 1094.84375 1169.957031 C 1093.480469 1170.09375 1092.117188 1170.199219 1090.75 1170.269531 C 1089.378906 1170.339844 1088.011719 1170.375 1086.640625 1170.378906 L 1065.269531 1170.378906 C 1064.121094 1170.378906 1062.976562 1170.433594 1061.835938 1170.546875 C 1060.695312 1170.660156 1059.558594 1170.828125 1058.433594 1171.050781 C 1057.308594 1171.273438 1056.199219 1171.554688 1055.101562 1171.886719 C 1054 1172.21875 1052.921875 1172.605469 1051.863281 1173.042969 C 1050.800781 1173.484375 1049.765625 1173.972656 1048.753906 1174.515625 C 1047.742188 1175.054688 1046.757812 1175.644531 1045.804688 1176.28125 C 1044.851562 1176.917969 1043.929688 1177.601562 1043.042969 1178.328125 C 1042.15625 1179.058594 1041.308594 1179.828125 1040.496094 1180.640625 C 1039.683594 1181.449219 1038.914062 1182.300781 1038.1875 1183.1875 C 1037.460938 1184.074219 1036.777344 1184.992188 1036.140625 1185.949219 C 1035.5 1186.902344 1034.914062 1187.886719 1034.371094 1188.898438 C 1033.832031 1189.910156 1033.339844 1190.945312 1032.902344 1192.003906 C 1032.460938 1193.066406 1032.074219 1194.144531 1031.742188 1195.242188 C 1031.410156 1196.339844 1031.132812 1197.453125 1030.90625 1198.578125 C 1030.683594 1199.703125 1030.515625 1200.835938 1030.402344 1201.980469 C 1030.289062 1203.121094 1030.234375 1204.265625 1030.234375 1205.414062 C 1030.234375 1206.558594 1030.289062 1207.707031 1030.402344 1208.847656 C 1030.515625 1209.988281 1030.683594 1211.121094 1030.90625 1212.246094 C 1031.132812 1213.375 1031.410156 1214.484375 1031.742188 1215.582031 C 1032.074219 1216.679688 1032.460938 1217.761719 1032.902344 1218.820312 C 1033.339844 1219.878906 1033.832031 1220.917969 1034.371094 1221.929688 C 1034.914062 1222.941406 1035.5 1223.921875 1036.140625 1224.878906 C 1036.777344 1225.832031 1037.460938 1226.753906 1038.1875 1227.640625 C 1038.914062 1228.527344 1039.683594 1229.375 1040.496094 1230.1875 C 1041.308594 1231 1042.15625 1231.769531 1043.042969 1232.496094 C 1043.929688 1233.222656 1044.851562 1233.90625 1045.804688 1234.542969 C 1046.757812 1235.179688 1047.742188 1235.769531 1048.753906 1236.3125 C 1049.765625 1236.851562 1050.800781 1237.34375 1051.863281 1237.78125 C 1052.921875 1238.222656 1054 1238.605469 1055.101562 1238.941406 C 1056.199219 1239.273438 1057.308594 1239.550781 1058.433594 1239.777344 C 1059.558594 1240 1060.695312 1240.167969 1061.835938 1240.28125 C 1062.976562 1240.390625 1064.121094 1240.449219 1065.269531 1240.449219 L 1086.640625 1240.449219 C 1089.160156 1240.445312 1091.671875 1240.382812 1094.1875 1240.253906 C 1096.699219 1240.128906 1099.207031 1239.941406 1101.710938 1239.691406 C 1104.214844 1239.441406 1106.710938 1239.132812 1109.203125 1238.761719 C 1111.691406 1238.390625 1114.167969 1237.957031 1116.636719 1237.464844 C 1119.105469 1236.972656 1121.558594 1236.417969 1124 1235.804688 C 1126.4375 1235.191406 1128.863281 1234.519531 1131.269531 1233.785156 C 1133.675781 1233.054688 1136.066406 1232.265625 1138.433594 1231.414062 C 1140.804688 1230.566406 1143.148438 1229.660156 1145.472656 1228.695312 C 1147.796875 1227.730469 1150.097656 1226.710938 1152.371094 1225.632812 C 1154.644531 1224.554688 1156.894531 1223.421875 1159.113281 1222.234375 C 1161.332031 1221.046875 1163.519531 1219.808594 1165.675781 1218.511719 C 1167.835938 1217.21875 1169.960938 1215.871094 1172.050781 1214.472656 C 1174.144531 1213.074219 1176.199219 1211.625 1178.21875 1210.125 C 1180.242188 1208.628906 1182.222656 1207.078125 1184.167969 1205.484375 C 1186.113281 1203.886719 1188.019531 1202.242188 1189.882812 1200.550781 C 1191.746094 1198.863281 1193.570312 1197.128906 1195.347656 1195.347656 C 1197.128906 1193.570312 1198.863281 1191.746094 1200.550781 1189.882812 C 1202.242188 1188.019531 1203.886719 1186.113281 1205.484375 1184.167969 C 1207.078125 1182.222656 1208.628906 1180.242188 1210.125 1178.21875 C 1211.625 1176.199219 1213.074219 1174.144531 1214.472656 1172.050781 C 1215.871094 1169.960938 1217.21875 1167.835938 1218.511719 1165.675781 C 1219.808594 1163.519531 1221.046875 1161.332031 1222.234375 1159.109375 C 1223.421875 1156.894531 1224.554688 1154.644531 1225.632812 1152.371094 C 1226.710938 1150.097656 1227.730469 1147.796875 1228.695312 1145.472656 C 1229.660156 1143.148438 1230.566406 1140.804688 1231.414062 1138.433594 C 1232.265625 1136.066406 1233.054688 1133.675781 1233.785156 1131.269531 C 1234.519531 1128.863281 1235.191406 1126.4375 1235.804688 1124 C 1236.417969 1121.558594 1236.972656 1119.105469 1237.464844 1116.636719 C 1237.957031 1114.167969 1238.390625 1111.691406 1238.761719 1109.203125 C 1239.132812 1106.710938 1239.441406 1104.214844 1239.691406 1101.710938 C 1239.941406 1099.207031 1240.128906 1096.699219 1240.253906 1094.1875 C 1240.382812 1091.671875 1240.445312 1089.160156 1240.449219 1086.640625 L 1240.449219 1065.269531 C 1240.449219 1064.121094 1240.390625 1062.976562 1240.28125 1061.835938 C 1240.167969 1060.695312 1240 1059.558594 1239.777344 1058.433594 C 1239.550781 1057.308594 1239.273438 1056.199219 1238.941406 1055.101562 C 1238.605469 1054 1238.222656 1052.921875 1237.78125 1051.863281 C 1237.34375 1050.800781 1236.851562 1049.765625 1236.3125 1048.753906 C 1235.769531 1047.742188 1235.183594 1046.757812 1234.542969 1045.804688 C 1233.90625 1044.851562 1233.222656 1043.929688 1232.496094 1043.042969 C 1231.769531 1042.15625 1231 1041.308594 1230.1875 1040.496094 C 1229.375 1039.683594 1228.527344 1038.914062 1227.640625 1038.1875 C 1226.753906 1037.460938 1225.832031 1036.777344 1224.878906 1036.140625 C 1223.921875 1035.5 1222.941406 1034.914062 1221.929688 1034.371094 C 1220.917969 1033.832031 1219.878906 1033.339844 1218.820312 1032.902344 C 1217.761719 1032.460938 1216.679688 1032.074219 1215.582031 1031.742188 C 1214.484375 1031.410156 1213.375 1031.132812 1212.25 1030.90625 C 1211.121094 1030.683594 1209.988281 1030.515625 1208.847656 1030.402344 C 1207.707031 1030.289062 1206.558594 1030.234375 1205.414062 1030.234375 Z M 1205.414062 1030.234375 " fill-opacity="1" fill-rule="nonzero"/></g><path fill="#000000" d="M 720.519531 399.589844 L 779.378906 399.589844 C 780.710938 399.589844 782.039062 399.65625 783.363281 399.789062 C 784.6875 399.917969 786.003906 400.113281 787.308594 400.371094 C 788.613281 400.632812 789.902344 400.957031 791.175781 401.339844 C 792.449219 401.726562 793.703125 402.175781 794.929688 402.683594 C 796.160156 403.195312 797.363281 403.761719 798.535156 404.390625 C 799.710938 405.019531 800.851562 405.703125 801.957031 406.441406 C 803.066406 407.179688 804.132812 407.972656 805.160156 408.816406 C 806.191406 409.660156 807.175781 410.554688 808.117188 411.496094 C 809.058594 412.4375 809.949219 413.421875 810.796875 414.449219 C 811.640625 415.480469 812.429688 416.546875 813.171875 417.652344 C 813.910156 418.761719 814.59375 419.902344 815.222656 421.074219 C 815.847656 422.25 816.417969 423.449219 816.925781 424.679688 C 817.4375 425.910156 817.882812 427.160156 818.269531 428.433594 C 818.65625 429.710938 818.980469 431 819.238281 432.304688 C 819.5 433.609375 819.695312 434.925781 819.824219 436.25 C 819.953125 437.574219 820.019531 438.902344 820.019531 440.234375 L 820.019531 499.09375 C 820.019531 500.425781 819.953125 501.753906 819.824219 503.078125 C 819.695312 504.402344 819.5 505.714844 819.238281 507.023438 C 818.980469 508.328125 818.65625 509.617188 818.269531 510.890625 C 817.882812 512.164062 817.4375 513.417969 816.925781 514.644531 C 816.417969 515.875 815.847656 517.078125 815.222656 518.25 C 814.59375 519.425781 813.910156 520.566406 813.171875 521.671875 C 812.429688 522.777344 811.640625 523.847656 810.796875 524.875 C 809.949219 525.90625 809.058594 526.890625 808.117188 527.832031 C 807.175781 528.773438 806.191406 529.664062 805.160156 530.507812 C 804.132812 531.355469 803.066406 532.144531 801.957031 532.886719 C 800.851562 533.625 799.710938 534.308594 798.535156 534.9375 C 797.363281 535.5625 796.160156 536.132812 794.929688 536.640625 C 793.703125 537.148438 792.449219 537.597656 791.175781 537.984375 C 789.902344 538.371094 788.613281 538.695312 787.308594 538.953125 C 786.003906 539.214844 784.6875 539.410156 783.363281 539.539062 C 782.039062 539.667969 780.710938 539.734375 779.378906 539.734375 L 720.519531 539.734375 C 719.1875 539.734375 717.859375 539.667969 716.535156 539.539062 C 715.210938 539.410156 713.894531 539.214844 712.589844 538.953125 C 711.285156 538.695312 709.996094 538.371094 708.722656 537.984375 C 707.449219 537.597656 706.195312 537.148438 704.964844 536.640625 C 703.734375 536.132812 702.535156 535.5625 701.359375 534.9375 C 700.1875 534.308594 699.046875 533.625 697.941406 532.886719 C 696.832031 532.144531 695.765625 531.355469 694.734375 530.507812 C 693.707031 529.664062 692.722656 528.773438 691.78125 527.832031 C 690.839844 526.890625 689.945312 525.90625 689.101562 524.875 C 688.257812 523.847656 687.464844 522.777344 686.726562 521.671875 C 685.988281 520.566406 685.304688 519.425781 684.675781 518.25 C 684.046875 517.078125 683.480469 515.875 682.972656 514.644531 C 682.460938 513.417969 682.015625 512.164062 681.628906 510.890625 C 681.242188 509.617188 680.917969 508.328125 680.660156 507.023438 C 680.398438 505.714844 680.203125 504.402344 680.074219 503.078125 C 679.941406 501.753906 679.878906 500.425781 679.878906 499.09375 L 679.878906 440.234375 C 679.878906 438.902344 679.941406 437.574219 680.074219 436.25 C 680.203125 434.925781 680.398438 433.609375 680.660156 432.304688 C 680.917969 431 681.242188 429.710938 681.628906 428.433594 C 682.015625 427.160156 682.460938 425.910156 682.972656 424.679688 C 683.480469 423.449219 684.046875 422.25 684.675781 421.074219 C 685.304688 419.902344 685.988281 418.761719 686.726562 417.652344 C 687.464844 416.546875 688.257812 415.480469 689.101562 414.449219 C 689.945312 413.421875 690.839844 412.4375 691.78125 411.496094 C 692.722656 410.554688 693.707031 409.660156 694.734375 408.816406 C 695.765625 407.972656 696.832031 407.179688 697.941406 406.441406 C 699.046875 405.703125 700.1875 405.019531 701.359375 404.390625 C 702.535156 403.761719 703.734375 403.195312 704.964844 402.683594 C 706.195312 402.175781 707.449219 401.726562 708.722656 401.339844 C 709.996094 400.957031 711.285156 400.632812 712.589844 400.371094 C 713.894531 400.113281 715.210938 399.917969 716.535156 399.789062 C 717.859375 399.65625 719.1875 399.589844 720.519531 399.589844 Z M 720.519531 399.589844 " fill-opacity="1" fill-rule="nonzero"/><path fill="#000000" d="M 720.519531 679.878906 L 779.378906 679.878906 C 780.710938 679.878906 782.039062 679.941406 783.363281 680.074219 C 784.6875 680.203125 786.003906 680.398438 787.308594 680.660156 C 788.613281 680.917969 789.902344 681.242188 791.175781 681.628906 C 792.449219 682.015625 793.703125 682.460938 794.929688 682.972656 C 796.160156 683.480469 797.363281 684.046875 798.535156 684.675781 C 799.710938 685.304688 800.851562 685.988281 801.957031 686.726562 C 803.066406 687.464844 804.132812 688.257812 805.160156 689.101562 C 806.191406 689.945312 807.175781 690.839844 808.117188 691.78125 C 809.058594 692.722656 809.949219 693.707031 810.796875 694.734375 C 811.640625 695.765625 812.429688 696.832031 813.171875 697.941406 C 813.910156 699.046875 814.59375 700.1875 815.222656 701.359375 C 815.847656 702.535156 816.417969 703.734375 816.925781 704.964844 C 817.4375 706.195312 817.882812 707.449219 818.269531 708.722656 C 818.65625 709.996094 818.980469 711.285156 819.238281 712.589844 C 819.5 713.894531 819.695312 715.210938 819.824219 716.535156 C 819.953125 717.859375 820.019531 719.1875 820.019531 720.519531 L 820.019531 779.378906 C 820.019531 780.710938 819.953125 782.039062 819.824219 783.363281 C 819.695312 784.6875 819.5 786.003906 819.238281 787.308594 C 818.980469 788.613281 818.65625 789.902344 818.269531 791.175781 C 817.882812 792.449219 817.4375 793.703125 816.925781 794.929688 C 816.417969 796.160156 815.847656 797.363281 815.222656 798.535156 C 814.59375 799.710938 813.910156 800.851562 813.171875 801.957031 C 812.429688 803.066406 811.640625 804.132812 810.796875 805.160156 C 809.949219 806.191406 809.058594 807.175781 808.117188 808.117188 C 807.175781 809.058594 806.191406 809.949219 805.160156 810.796875 C 804.132812 811.640625 803.066406 812.429688 801.957031 813.171875 C 800.851562 813.910156 799.710938 814.59375 798.535156 815.222656 C 797.363281 815.847656 796.160156 816.417969 794.929688 816.925781 C 793.703125 817.4375 792.449219 817.882812 791.175781 818.269531 C 789.902344 818.65625 788.613281 818.980469 787.308594 819.238281 C 786.003906 819.5 784.6875 819.695312 783.363281 819.824219 C 782.039062 819.953125 780.710938 820.019531 779.378906 820.019531 L 720.519531 820.019531 C 719.1875 820.019531 717.859375 819.953125 716.535156 819.824219 C 715.210938 819.695312 713.894531 819.5 712.589844 819.238281 C 711.285156 818.980469 709.996094 818.65625 708.722656 818.269531 C 707.449219 817.882812 706.195312 817.4375 704.964844 816.925781 C 703.734375 816.417969 702.535156 815.847656 701.359375 815.222656 C 700.1875 814.59375 699.046875 813.910156 697.941406 813.171875 C 696.832031 812.429688 695.765625 811.640625 694.734375 810.796875 C 693.707031 809.949219 692.722656 809.058594 691.78125 808.117188 C 690.839844 807.175781 689.945312 806.191406 689.101562 805.160156 C 688.257812 804.132812 687.464844 803.066406 686.726562 801.957031 C 685.988281 800.851562 685.304688 799.710938 684.675781 798.535156 C 684.046875 797.363281 683.480469 796.160156 682.972656 794.929688 C 682.460938 793.703125 682.015625 792.449219 681.628906 791.175781 C 681.242188 789.902344 680.917969 788.613281 680.660156 787.308594 C 680.398438 786.003906 680.203125 784.6875 680.074219 783.363281 C 679.941406 782.039062 679.878906 780.710938 679.878906 779.378906 L 679.878906 720.519531 C 679.878906 719.1875 679.941406 717.859375 680.074219 716.535156 C 680.203125 715.210938 680.398438 713.894531 680.660156 712.589844 C 680.917969 711.285156 681.242188 709.996094 681.628906 708.722656 C 682.015625 707.449219 682.460938 706.195312 682.972656 704.964844 C 683.480469 703.734375 684.046875 702.535156 684.675781 701.359375 C 685.304688 700.1875 685.988281 699.046875 686.726562 697.941406 C 687.464844 696.832031 688.257812 695.765625 689.101562 694.734375 C 689.945312 693.707031 690.839844 692.722656 691.78125 691.78125 C 692.722656 690.839844 693.707031 689.945312 694.734375 689.101562 C 695.765625 688.257812 696.832031 687.464844 697.941406 686.726562 C 699.046875 685.988281 700.1875 685.304688 701.359375 684.675781 C 702.535156 684.046875 703.734375 683.480469 704.964844 682.972656 C 706.195312 682.460938 707.449219 682.015625 708.722656 681.628906 C 709.996094 681.242188 711.285156 680.917969 712.589844 680.660156 C 713.894531 680.398438 715.210938 680.203125 716.535156 680.074219 C 717.859375 679.941406 719.1875 679.878906 720.519531 679.878906 Z M 720.519531 679.878906 " fill-opacity="1" fill-rule="nonzero"/><path fill="#000000" d="M 440.234375 679.878906 L 499.09375 679.878906 C 500.425781 679.878906 501.753906 679.941406 503.078125 680.074219 C 504.402344 680.203125 505.714844 680.398438 507.023438 680.660156 C 508.328125 680.917969 509.617188 681.242188 510.890625 681.628906 C 512.164062 682.015625 513.417969 682.460938 514.644531 682.972656 C 515.875 683.480469 517.078125 684.046875 518.25 684.675781 C 519.425781 685.304688 520.566406 685.988281 521.671875 686.726562 C 522.777344 687.464844 523.847656 688.257812 524.875 689.101562 C 525.90625 689.945312 526.890625 690.839844 527.832031 691.78125 C 528.773438 692.722656 529.664062 693.707031 530.507812 694.734375 C 531.355469 695.765625 532.144531 696.832031 532.886719 697.941406 C 533.625 699.046875 534.308594 700.1875 534.9375 701.359375 C 535.5625 702.535156 536.132812 703.734375 536.640625 704.964844 C 537.148438 706.195312 537.597656 707.449219 537.984375 708.722656 C 538.371094 709.996094 538.695312 711.285156 538.953125 712.589844 C 539.214844 713.894531 539.410156 715.210938 539.539062 716.535156 C 539.667969 717.859375 539.734375 719.1875 539.734375 720.519531 L 539.734375 779.378906 C 539.734375 780.710938 539.667969 782.039062 539.539062 783.363281 C 539.410156 784.6875 539.214844 786.003906 538.953125 787.308594 C 538.695312 788.613281 538.371094 789.902344 537.984375 791.175781 C 537.597656 792.449219 537.148438 793.703125 536.640625 794.929688 C 536.132812 796.160156 535.5625 797.363281 534.9375 798.535156 C 534.308594 799.710938 533.625 800.851562 532.886719 801.957031 C 532.144531 803.066406 531.355469 804.132812 530.507812 805.160156 C 529.664062 806.191406 528.773438 807.175781 527.832031 808.117188 C 526.890625 809.058594 525.90625 809.949219 524.875 810.796875 C 523.847656 811.640625 522.777344 812.429688 521.671875 813.171875 C 520.566406 813.910156 519.425781 814.59375 518.25 815.222656 C 517.078125 815.847656 515.875 816.417969 514.644531 816.925781 C 513.417969 817.4375 512.164062 817.882812 510.890625 818.269531 C 509.617188 818.65625 508.328125 818.980469 507.023438 819.238281 C 505.714844 819.5 504.402344 819.695312 503.078125 819.824219 C 501.753906 819.953125 500.425781 820.019531 499.09375 820.019531 L 440.234375 820.019531 C 438.902344 820.019531 437.574219 819.953125 436.25 819.824219 C 434.925781 819.695312 433.609375 819.5 432.304688 819.238281 C 431 818.980469 429.710938 818.65625 428.433594 818.269531 C 427.160156 817.882812 425.910156 817.4375 424.679688 816.925781 C 423.449219 816.417969 422.25 815.847656 421.074219 815.222656 C 419.902344 814.59375 418.761719 813.910156 417.652344 813.171875 C 416.546875 812.429688 415.480469 811.640625 414.449219 810.796875 C 413.421875 809.949219 412.4375 809.058594 411.496094 808.117188 C 410.554688 807.175781 409.660156 806.191406 408.816406 805.160156 C 407.972656 804.132812 407.179688 803.066406 406.441406 801.957031 C 405.703125 800.851562 405.019531 799.710938 404.390625 798.535156 C 403.761719 797.363281 403.195312 796.160156 402.683594 794.929688 C 402.175781 793.703125 401.726562 792.449219 401.339844 791.175781 C 400.957031 789.902344 400.632812 788.613281 400.371094 787.308594 C 400.113281 786.003906 399.917969 784.6875 399.789062 783.363281 C 399.65625 782.039062 399.589844 780.710938 399.589844 779.378906 L 399.589844 720.519531 C 399.589844 719.1875 399.65625 717.859375 399.789062 716.535156 C 399.917969 715.210938 400.113281 713.894531 400.371094 712.589844 C 400.632812 711.285156 400.957031 709.996094 401.339844 708.722656 C 401.726562 707.449219 402.175781 706.195312 402.683594 704.964844 C 403.195312 703.734375 403.761719 702.535156 404.390625 701.359375 C 405.019531 700.1875 405.703125 699.046875 406.441406 697.941406 C 407.179688 696.832031 407.972656 695.765625 408.816406 694.734375 C 409.660156 693.707031 410.554688 692.722656 411.496094 691.78125 C 412.4375 690.839844 413.421875 689.945312 414.449219 689.101562 C 415.480469 688.257812 416.546875 687.464844 417.652344 686.726562 C 418.761719 685.988281 419.902344 685.304688 421.074219 684.675781 C 422.25 684.046875 423.449219 683.480469 424.679688 682.972656 C 425.910156 682.460938 427.160156 682.015625 428.433594 681.628906 C 429.710938 681.242188 431 680.917969 432.304688 680.660156 C 433.609375 680.398438 434.925781 680.203125 436.25 680.074219 C 437.574219 679.941406 438.902344 679.878906 440.234375 679.878906 Z M 440.234375 679.878906 " fill-opacity="1" fill-rule="nonzero"/><path fill="#000000" d="M 1000.804688 679.878906 L 1059.664062 679.878906 C 1060.996094 679.878906 1062.324219 679.941406 1063.648438 680.074219 C 1064.972656 680.203125 1066.289062 680.398438 1067.59375 680.660156 C 1068.898438 680.917969 1070.1875 681.242188 1071.460938 681.628906 C 1072.734375 682.015625 1073.988281 682.460938 1075.21875 682.972656 C 1076.445312 683.480469 1077.648438 684.046875 1078.824219 684.675781 C 1079.996094 685.304688 1081.136719 685.988281 1082.242188 686.726562 C 1083.351562 687.464844 1084.417969 688.257812 1085.445312 689.101562 C 1086.476562 689.945312 1087.460938 690.839844 1088.402344 691.78125 C 1089.34375 692.722656 1090.238281 693.707031 1091.082031 694.734375 C 1091.925781 695.765625 1092.71875 696.832031 1093.457031 697.941406 C 1094.195312 699.046875 1094.878906 700.1875 1095.507812 701.359375 C 1096.132812 702.535156 1096.703125 703.734375 1097.210938 704.964844 C 1097.722656 706.195312 1098.167969 707.449219 1098.554688 708.722656 C 1098.941406 709.996094 1099.265625 711.285156 1099.523438 712.589844 C 1099.785156 713.894531 1099.980469 715.210938 1100.109375 716.535156 C 1100.242188 717.859375 1100.304688 719.1875 1100.304688 720.519531 L 1100.304688 779.378906 C 1100.304688 780.710938 1100.242188 782.039062 1100.109375 783.363281 C 1099.980469 784.6875 1099.785156 786.003906 1099.523438 787.308594 C 1099.265625 788.613281 1098.941406 789.902344 1098.554688 791.175781 C 1098.167969 792.449219 1097.722656 793.703125 1097.210938 794.929688 C 1096.703125 796.160156 1096.132812 797.363281 1095.507812 798.535156 C 1094.878906 799.710938 1094.195312 800.851562 1093.457031 801.957031 C 1092.71875 803.066406 1091.925781 804.132812 1091.082031 805.160156 C 1090.234375 806.191406 1089.34375 807.175781 1088.402344 808.117188 C 1087.460938 809.058594 1086.476562 809.949219 1085.445312 810.796875 C 1084.417969 811.640625 1083.351562 812.429688 1082.242188 813.171875 C 1081.136719 813.910156 1079.996094 814.59375 1078.824219 815.222656 C 1077.648438 815.847656 1076.445312 816.417969 1075.21875 816.925781 C 1073.988281 817.4375 1072.734375 817.882812 1071.460938 818.269531 C 1070.1875 818.65625 1068.898438 818.980469 1067.59375 819.238281 C 1066.289062 819.5 1064.972656 819.695312 1063.648438 819.824219 C 1062.324219 819.953125 1060.996094 820.019531 1059.664062 820.019531 L 1000.804688 820.019531 C 999.472656 820.019531 998.144531 819.953125 996.820312 819.824219 C 995.496094 819.695312 994.179688 819.5 992.875 819.238281 C 991.570312 818.980469 990.28125 818.65625 989.007812 818.269531 C 987.734375 817.882812 986.480469 817.4375 985.25 816.925781 C 984.023438 816.417969 982.820312 815.847656 981.644531 815.222656 C 980.472656 814.59375 979.332031 813.910156 978.226562 813.171875 C 977.117188 812.429688 976.050781 811.640625 975.023438 810.796875 C 973.992188 809.949219 973.007812 809.058594 972.066406 808.117188 C 971.125 807.175781 970.234375 806.191406 969.386719 805.160156 C 968.542969 804.132812 967.75 803.066406 967.011719 801.957031 C 966.273438 800.851562 965.589844 799.710938 964.960938 798.535156 C 964.335938 797.363281 963.765625 796.160156 963.257812 794.929688 C 962.746094 793.703125 962.300781 792.449219 961.914062 791.175781 C 961.527344 789.902344 961.203125 788.613281 960.945312 787.308594 C 960.683594 786.003906 960.488281 784.6875 960.359375 783.363281 C 960.226562 782.039062 960.164062 780.710938 960.164062 779.378906 L 960.164062 720.519531 C 960.164062 719.1875 960.226562 717.859375 960.359375 716.535156 C 960.488281 715.210938 960.683594 713.894531 960.945312 712.589844 C 961.203125 711.285156 961.527344 709.996094 961.914062 708.722656 C 962.300781 707.449219 962.746094 706.195312 963.257812 704.964844 C 963.765625 703.734375 964.335938 702.535156 964.960938 701.359375 C 965.589844 700.1875 966.273438 699.046875 967.011719 697.941406 C 967.75 696.832031 968.542969 695.765625 969.386719 694.734375 C 970.234375 693.707031 971.125 692.722656 972.066406 691.78125 C 973.007812 690.839844 973.992188 689.945312 975.023438 689.101562 C 976.050781 688.257812 977.117188 687.464844 978.226562 686.726562 C 979.332031 685.988281 980.472656 685.304688 981.644531 684.675781 C 982.820312 684.046875 984.023438 683.480469 985.25 682.972656 C 986.480469 682.460938 987.734375 682.015625 989.007812 681.628906 C 990.28125 681.242188 991.570312 680.917969 992.875 680.660156 C 994.179688 680.398438 995.496094 680.203125 996.820312 680.074219 C 998.144531 679.941406 999.472656 679.878906 1000.804688 679.878906 Z M 1000.804688 679.878906 " fill-opacity="1" fill-rule="nonzero"/><path fill="#000000" d="M 720.519531 960.164062 L 779.378906 960.164062 C 780.710938 960.164062 782.039062 960.226562 783.363281 960.359375 C 784.6875 960.488281 786.003906 960.683594 787.308594 960.945312 C 788.613281 961.203125 789.902344 961.527344 791.175781 961.914062 C 792.449219 962.300781 793.703125 962.746094 794.929688 963.257812 C 796.160156 963.765625 797.363281 964.335938 798.535156 964.960938 C 799.710938 965.589844 800.851562 966.273438 801.957031 967.011719 C 803.066406 967.75 804.132812 968.542969 805.160156 969.386719 C 806.191406 970.234375 807.175781 971.125 808.117188 972.066406 C 809.058594 973.007812 809.949219 973.992188 810.796875 975.023438 C 811.640625 976.050781 812.429688 977.117188 813.171875 978.226562 C 813.910156 979.332031 814.59375 980.472656 815.222656 981.644531 C 815.847656 982.820312 816.417969 984.023438 816.925781 985.25 C 817.4375 986.480469 817.882812 987.734375 818.269531 989.007812 C 818.65625 990.28125 818.980469 991.570312 819.238281 992.875 C 819.5 994.179688 819.695312 995.496094 819.824219 996.820312 C 819.953125 998.144531 820.019531 999.472656 820.019531 1000.804688 L 820.019531 1059.664062 C 820.019531 1060.996094 819.953125 1062.324219 819.824219 1063.648438 C 819.695312 1064.972656 819.5 1066.289062 819.238281 1067.59375 C 818.980469 1068.898438 818.65625 1070.1875 818.269531 1071.460938 C 817.882812 1072.734375 817.4375 1073.988281 816.925781 1075.21875 C 816.417969 1076.445312 815.847656 1077.648438 815.222656 1078.824219 C 814.59375 1079.996094 813.910156 1081.136719 813.171875 1082.242188 C 812.429688 1083.351562 811.640625 1084.417969 810.796875 1085.445312 C 809.949219 1086.476562 809.058594 1087.460938 808.117188 1088.402344 C 807.175781 1089.34375 806.191406 1090.234375 805.160156 1091.082031 C 804.132812 1091.925781 803.066406 1092.71875 801.957031 1093.457031 C 800.851562 1094.195312 799.710938 1094.878906 798.535156 1095.507812 C 797.363281 1096.132812 796.160156 1096.703125 794.929688 1097.210938 C 793.703125 1097.722656 792.449219 1098.167969 791.175781 1098.554688 C 789.902344 1098.941406 788.613281 1099.265625 787.308594 1099.523438 C 786.003906 1099.785156 784.6875 1099.980469 783.363281 1100.109375 C 782.039062 1100.242188 780.710938 1100.304688 779.378906 1100.304688 L 720.519531 1100.304688 C 719.1875 1100.304688 717.859375 1100.242188 716.535156 1100.109375 C 715.210938 1099.980469 713.894531 1099.785156 712.589844 1099.523438 C 711.285156 1099.265625 709.996094 1098.941406 708.722656 1098.554688 C 707.449219 1098.167969 706.195312 1097.722656 704.964844 1097.210938 C 703.734375 1096.703125 702.535156 1096.132812 701.359375 1095.507812 C 700.1875 1094.878906 699.046875 1094.195312 697.941406 1093.457031 C 696.832031 1092.71875 695.765625 1091.925781 694.734375 1091.082031 C 693.707031 1090.234375 692.722656 1089.34375 691.78125 1088.402344 C 690.839844 1087.460938 689.945312 1086.476562 689.101562 1085.445312 C 688.257812 1084.417969 687.464844 1083.351562 686.726562 1082.242188 C 685.988281 1081.136719 685.304688 1079.996094 684.675781 1078.824219 C 684.046875 1077.648438 683.480469 1076.445312 682.972656 1075.21875 C 682.460938 1073.988281 682.015625 1072.734375 681.628906 1071.460938 C 681.242188 1070.1875 680.917969 1068.898438 680.660156 1067.59375 C 680.398438 1066.289062 680.203125 1064.972656 680.074219 1063.648438 C 679.941406 1062.324219 679.878906 1060.996094 679.878906 1059.664062 L 679.878906 1000.804688 C 679.878906 999.472656 679.941406 998.144531 680.074219 996.820312 C 680.203125 995.496094 680.398438 994.179688 680.660156 992.875 C 680.917969 991.570312 681.242188 990.28125 681.628906 989.007812 C 682.015625 987.734375 682.460938 986.480469 682.972656 985.25 C 683.480469 984.023438 684.046875 982.820312 684.675781 981.644531 C 685.304688 980.472656 685.988281 979.332031 686.726562 978.226562 C 687.464844 977.117188 688.257812 976.050781 689.101562 975.023438 C 689.945312 973.992188 690.839844 973.007812 691.78125 972.066406 C 692.722656 971.125 693.707031 970.234375 694.734375 969.386719 C 695.765625 968.542969 696.832031 967.75 697.941406 967.011719 C 699.046875 966.273438 700.1875 965.589844 701.359375 964.960938 C 702.535156 964.335938 703.734375 963.765625 704.964844 963.257812 C 706.195312 962.746094 707.449219 962.300781 708.722656 961.914062 C 709.996094 961.527344 711.285156 961.203125 712.589844 960.945312 C 713.894531 960.683594 715.210938 960.488281 716.535156 960.359375 C 717.859375 960.226562 719.1875 960.164062 720.519531 960.164062 Z M 720.519531 960.164062 " fill-opacity="1" fill-rule="nonzero"/></svg>